<svg width="24" height="22" viewBox="0 0 24 22" fill="none" xmlns="http://www.w3.org/2000/svg">
<path d="M12.0142 1.86109C10.7045 0.663393 8.99393 -0.000543463 7.21922 3.84425e-05C6.27657 -0.00284827 5.34253 0.179404 4.47011 0.536451C3.59347 0.895591 2.80131 1.43351 2.14416 2.11589C1.4483 2.78376 0.900544 3.59042 0.536413 4.48356C0.184681 5.33829 0.0024959 6.25326 0 7.17754C0.000943833 8.09233 0.183264 8.99785 0.536413 9.84172C0.899008 10.7379 1.44631 11.5477 2.14267 12.2183L10.9696 21.0453C11.062 21.2312 11.2099 21.3838 11.3928 21.4819C11.5833 21.5836 11.7967 21.6349 12.0127 21.6309C12.1988 21.6307 12.3824 21.5872 12.5489 21.5039C12.7154 21.4207 12.8604 21.2999 12.9722 21.1511L21.8842 12.2109C22.5802 11.5426 23.1279 10.7354 23.4919 9.84172C23.8275 8.99304 23.9998 8.08866 24 7.17605C23.998 6.25491 23.8257 5.34208 23.4919 4.48356C23.1239 3.58373 22.577 2.76806 21.8842 2.08609C21.2207 1.4187 20.4297 0.891685 19.5582 0.536451C18.6853 0.179213 17.7508 -0.00304349 16.8076 3.84425e-05C15.0334 -0.000171125 13.3234 0.66374 12.0142 1.86109V1.86109ZM20.193 3.80708C20.6451 4.24024 21.0038 4.76146 21.2467 5.33859C21.4897 5.91571 21.6118 6.5365 21.6055 7.16264C21.6122 7.78857 21.4905 8.40922 21.2481 8.98633C21.0057 9.56344 20.6476 10.0848 20.1959 10.5182L12.0142 18.697L3.83535 10.5197C3.38371 10.0863 3.02564 9.56493 2.78321 8.98782C2.54078 8.41071 2.41914 7.79006 2.42578 7.16413C2.41914 6.5382 2.54078 5.91755 2.78321 5.34044C3.02564 4.76332 3.38371 4.24199 3.83535 3.80857C4.27904 3.3626 4.80607 3.0082 5.38648 2.76554C5.96664 2.52173 6.58991 2.39708 7.21922 2.399C7.83395 2.39838 8.44236 2.5231 9.00726 2.76554C9.588 3.01494 10.1182 3.36843 10.5718 3.80857L11.1678 4.40458C11.2763 4.52043 11.4073 4.61279 11.5529 4.67593C11.6985 4.73906 11.8555 4.77164 12.0142 4.77164C12.1728 4.77164 12.3298 4.73906 12.4754 4.67593C12.621 4.61279 12.7521 4.52043 12.8605 4.40458L13.4565 3.80857C13.8983 3.36771 14.4245 3.02063 15.0037 2.78814C15.5828 2.55565 16.203 2.44255 16.827 2.45562C17.4501 2.44296 18.0693 2.55612 18.6477 2.78834C19.226 3.02055 19.7516 3.36704 20.193 3.80708V3.80708Z" fill="current"/>
</svg>
