<svg width="100" height="86" viewBox="0 0 100 86" fill="none" xmlns="http://www.w3.org/2000/svg">
<path d="M60.6487 30.8271C60.6487 47.3002 47.2958 60.6541 30.8244 60.6541C14.3529 60.6541 1 47.3002 1 30.8271C1 14.354 14.3529 1 30.8244 1C47.2958 1 60.6487 14.354 60.6487 30.8271Z" fill="#FAFF00" stroke="#0A1045" stroke-width="2"/>
<g style="mix-blend-mode:multiply">
<path d="M99.0001 30.8271C99.0001 47.3002 85.6472 60.6541 69.1757 60.6541C52.7042 60.6541 39.3513 47.3002 39.3513 30.8271C39.3513 14.354 52.7042 1 69.1757 1C85.6472 1 99.0001 14.354 99.0001 30.8271Z" fill="#01F5BB"/>
<path d="M99.0001 30.8271C99.0001 47.3002 85.6472 60.6541 69.1757 60.6541C52.7042 60.6541 39.3513 47.3002 39.3513 30.8271C39.3513 14.354 52.7042 1 69.1757 1C85.6472 1 99.0001 14.354 99.0001 30.8271Z" stroke="#0A1045" stroke-width="2"/>
</g>
<path d="M15.4121 35.3832C15.4121 35.3832 17.338 40.3711 24.0891 39.4771C30.8402 38.583 30.8686 33.3363 30.8686 33.3363" stroke="black" stroke-width="3" stroke-linecap="round"/>
<ellipse cx="31.7204" cy="25.9879" rx="2.68817" ry="2.68841" fill="black"/>
<ellipse cx="88.7097" cy="25.0918" rx="2.68817" ry="3.58454" fill="black"/>
<ellipse cx="72.939" cy="25.0918" rx="2.68817" ry="3.58454" fill="black"/>
<line x1="1.5" y1="-1.5" x2="4.16721" y2="-1.5" transform="matrix(0.948675 0.316253 -0.316203 0.948692 10.0359 25.8087)" stroke="black" stroke-width="3" stroke-linecap="round"/>
<path d="M76.7152 33.3362C76.7152 33.3362 76.2201 37.5218 81.4188 37.2682C86.6175 37.0145 85.9986 33.3362 85.9986 33.3362" stroke="black" stroke-width="3" stroke-linecap="round"/>
<path d="M89.7589 21.5072L89.6057 21.7627" stroke="black" stroke-width="3" stroke-linecap="round"/>
<path d="M73.9884 21.5072L73.8352 21.7627" stroke="black" stroke-width="3" stroke-linecap="round"/>
<line x1="31.0752" y1="60.6541" x2="69.6767" y2="60.6541" stroke="#0A1045" stroke-width="2" stroke-linecap="round"/>
<path d="M13.636 82.4537C15.232 82.4537 16.648 81.1937 16.648 79.0457C16.648 76.8617 15.232 75.6137 13.636 75.6137C12.028 75.6137 10.612 76.8617 10.612 79.0457C10.612 81.1937 12.028 82.4537 13.636 82.4537ZM13.636 81.5417C12.496 81.5417 11.74 80.5337 11.74 79.0457C11.74 77.5337 12.496 76.5257 13.636 76.5257C14.764 76.5257 15.52 77.5337 15.52 79.0457C15.52 80.5337 14.764 81.5417 13.636 81.5417ZM32.2235 82.4537C32.6315 82.4537 33.0635 82.3337 33.4235 82.2017L33.2075 81.3857C33.0035 81.4697 32.7035 81.5657 32.4755 81.5657C31.7195 81.5657 31.4675 81.0977 31.4675 80.3057V76.6577H33.2315V75.7697H31.4675V73.9337H30.5435L30.4235 75.7697L29.4035 75.8417V76.6577H30.3755V80.2817C30.3755 81.5777 30.8315 82.4537 32.2235 82.4537ZM47.9388 82.4537C48.7428 82.4537 49.4748 82.0337 50.0868 81.5177H50.1348L50.2308 82.2857H51.1308V78.2897C51.1308 76.6697 50.4588 75.6137 48.8628 75.6137C47.8188 75.6137 46.9068 76.0697 46.3068 76.4537L46.7388 77.2217C47.2428 76.8737 47.9268 76.5137 48.6948 76.5137C49.7628 76.5137 50.0268 77.3177 50.0268 78.1577C47.2548 78.4697 46.0308 79.1777 46.0308 80.5937C46.0308 81.7697 46.8468 82.4537 47.9388 82.4537ZM48.2388 81.5657C47.6028 81.5657 47.0988 81.2657 47.0988 80.5217C47.0988 79.6817 47.8308 79.1417 50.0268 78.8897V80.7017C49.4028 81.2657 48.8748 81.5657 48.2388 81.5657ZM65.2606 82.2857H66.3406V80.5697L67.5526 79.1417L69.4606 82.2857H70.6486L68.2006 78.3977L70.3726 75.7697H69.1486L66.3766 79.2137H66.3406V72.7457H65.2606V82.2857ZM85.6267 82.4537C86.5267 82.4537 87.1747 81.9737 87.7867 81.2657H87.8107L87.9067 82.2857H88.8067V75.7697H87.7147V80.4017C87.1027 81.1697 86.6227 81.4937 85.9627 81.4937C85.0987 81.4937 84.7267 80.9777 84.7267 79.7657V75.7697H83.6347V79.8977C83.6347 81.5657 84.2587 82.4537 85.6267 82.4537Z" fill="black"/>
</svg>
