<svg width="24" height="24" viewBox="0 0 24 24" fill="none" xmlns="http://www.w3.org/2000/svg">
<path d="M23.634 21.9202L18.2384 16.5246C18.9198 15.6535 19.4517 14.6752 19.8124 13.6297C20.2067 12.5201 20.4065 11.3508 20.403 10.1732C20.4116 8.80987 20.1341 7.45989 19.5884 6.2105C19.0806 5.00003 18.3391 3.9016 17.4063 2.97807C16.4698 2.05403 15.3704 1.31125 14.1636 0.787231C12.9097 0.25903 11.5615 -0.00873103 10.2009 0.00021709C8.84082 -0.00853368 7.49313 0.259223 6.23967 0.787231C5.03125 1.31122 3.93035 2.05452 2.99269 2.97952C2.0616 3.90301 1.32159 5.00092 0.814947 6.2105C0.269234 7.45989 -0.00829529 8.80987 0.000292622 10.1732C-0.0103081 11.5457 0.267224 12.9051 0.814947 14.1636C1.32272 15.374 2.06423 16.4725 2.99706 17.396C3.93429 18.3208 5.03468 19.0641 6.24258 19.5883C7.49649 20.1165 8.8447 20.3842 10.2053 20.3753C11.3636 20.3816 12.5139 20.1816 13.6021 19.7847C14.6539 19.3996 15.6468 18.8699 16.5523 18.2106L21.9479 23.6063C22.0704 23.7315 22.2196 23.8275 22.3844 23.887C22.513 23.9426 22.6516 23.9713 22.7917 23.9713C22.9318 23.9713 23.0704 23.9426 23.199 23.887C23.391 23.8223 23.5631 23.7091 23.6985 23.5584C23.8339 23.4077 23.9282 23.2246 23.9721 23.0267C24.0159 22.8289 24.008 22.6231 23.9491 22.4293C23.8901 22.2354 23.7821 22.0601 23.6354 21.9202H23.634ZM2.41662 10.1732C2.41154 9.13264 2.61227 8.10133 3.00724 7.13862C3.40789 6.21867 3.9745 5.38034 4.67874 4.66557C5.38681 3.94969 6.23319 3.38543 7.16634 3.00716C8.1234 2.59082 9.15726 2.38018 10.2009 2.3889C11.2456 2.37977 12.2805 2.59042 13.2384 3.00716C14.1716 3.38543 15.018 3.94969 15.726 4.66557C16.4303 5.38034 16.9969 6.21867 17.3975 7.13862C17.7925 8.10132 17.9933 9.13264 17.9881 10.1732C17.9997 11.2019 17.8041 12.2223 17.413 13.1738C17.0218 14.1253 16.4432 14.9883 15.7115 15.7114C15.0017 16.4217 14.1621 16.9891 13.2384 17.3829C12.279 17.7901 11.2461 17.9956 10.2038 17.9866C9.16017 17.9953 8.12631 17.7847 7.16925 17.3684C5.29146 16.5788 3.79749 15.0853 3.00724 13.2078C2.60878 12.2461 2.40791 11.2141 2.41662 10.1732V10.1732Z" fill="current"/>
</svg>
