<svg width="24" height="24" viewBox="0 0 24 24" fill="none" xmlns="http://www.w3.org/2000/svg">
<path d="M2.66667 24H0V22.7368C0.00587818 17.8558 4.18111 13.9003 9.33333 13.8947H14.6667C19.8189 13.9003 23.9941 17.8558 24 22.7368V24H21.3333V22.7368C21.3289 19.2505 18.3467 16.4252 14.6667 16.4211H9.33333C5.65326 16.4252 2.67107 19.2505 2.66667 22.7368V24ZM12 12.6316C8.3181 12.6316 5.33333 9.8039 5.33333 6.31579C5.33333 2.82768 8.3181 0 12 0C15.6819 0 18.6667 2.82768 18.6667 6.31579C18.6623 9.80217 15.6801 12.6274 12 12.6316ZM12 2.52632C9.79086 2.52632 8 4.22292 8 6.31579C8 8.40866 9.79086 10.1053 12 10.1053C14.2091 10.1053 16 8.40866 16 6.31579C16 4.22292 14.2091 2.52632 12 2.52632Z" fill="current"/>
</svg>
